<svg 
  xmlns="http://www.w3.org/2000/svg" width="511" height="252" viewBox="0 0 511 252">
  <path fill="#545454" d="M271.986 50.598L271.52 31.4c-.385-.348-.73-.754-1.04-1.218v-.058c-.08.04-.794-.33-2.147-1.102-1.393-.812-4.35-2.514-8.873-5.105-3.633-2.126-5.664-3.268-6.09-3.42.04-.08.06-.156.06-.234h-.466V-6.184H251.4V19.8c0 .077-.02.153-.06.232-.04.077-.058.154-.058.232h-.464c-.85.233-1.816.85-2.9 1.855-1.196 1.08-4.386 3.382-9.567 6.902-4.677 3.21-7.017 4.89-7.017 5.045 0 .193.04.37.116.523 0 .04.02.077.057.116-.116.348-.19.812-.232 1.393-.113 1.392-.096 3.477.06 6.263-.04 2.397-.194 5.993-.465 10.788v2.147c.115 1.236.387 1.913.812 2.03 0 .038.02.115.06.23 0 .04.02.078.058.117 1.236.542 3.478 1.626 6.728 3.248 6.032 2.938 10.788 5.085 14.27 6.438.23.425.483.64.754.64.194 0 .386-.078.578-.233.077-.04.155-.098.232-.175.27-.155.407-.425.407-.812 1.353-.62 4.6-2.783 9.743-6.497 2.05-1.51 3.633-2.648 4.756-3.42.957-1.2 1.866-3.29 2.716-6.265zM240.26 29.95c2.63-1.817 6.305-4.407 11.02-7.772l.06.174c0 1.354.097 3.247.29 5.684.154 2.436.154 4.66 0 6.67-.193 1.972-.29 2.843-.29 2.61-1.47-.423-3.132-.715-4.99-.87-1.855-.154-4.64-.562-8.35-1.22-2.012-.347-3.287-.58-3.828-.693-.153-.04-.29-.06-.406-.06l-.06-.057c1.315-.813 3.5-2.3 6.554-4.466zm-7.54 20.474c.27-1.703.426-4.04.465-7.018.077-4.216.137-6.536.176-6.96 2.86.463 8.66 1.49 17.4 3.075h.23c.115 0 .23.02.35.058l.405 13.108c-.27 2.706-.33 5.124-.176 7.25-3.712-.774-7.017-1.566-9.917-2.377-.115-.04-3.092-.833-8.934-2.38v-4.756zm17.17 13.164c-3.21-1.51-7.04-3.074-11.485-4.697L251.63 62.2l.348 2.494c-.62-.348-1.317-.717-2.09-1.104zm3.247-41.005v-.464c6.458 6.805 10.73 10.98 12.82 12.526-1.396.155-3.21.504-5.454 1.044-3.75.85-6.243 1.528-7.482 2.03l.117-15.137zm.984 42.34c-.23-.81-.58-1.703-1.04-2.67.04-.154.077-.31.115-.462 1.393 0 5.22-1.14 11.484-3.42-4.45 2.474-7.967 4.66-10.56 6.553zm12.53-20.127l-.175 1.394v9.86c-.23.04-2.087.638-5.567 1.797-3.17 1.044-5.317 1.566-6.44 1.566-.347 0-.655.04-.927.116.118-1.586.118-3.712 0-6.382-.037-4.68-.112-8.157-.228-10.44.04-1.2.04-2.126 0-2.784-.04-.232-.077-.443-.116-.64h.232c.347 0 2.26-.463 5.742-1.39 3.323-.89 5.72-1.413 7.19-1.568.08.155.194.27.35.348.076 4.372.056 7.078-.06 8.122zm-6.554-17.863c-1.778-1.545-2.88-2.57-3.306-3.073 1.856 1.237 3.15 2.087 3.886 2.552 4.023 2.59 6.806 4.35 8.353 5.278-.582.812-1.064 1.508-1.45 2.087-3.25-3.016-5.743-5.297-7.484-6.844zm8.236 24.476c0-1.74.115-4.524.348-8.353.23-3.828.27-6.28.116-7.363.387-.734.695-1.257.926-1.566.155-.232.31-.425.465-.58V50.02c-.35 1.2-.927 2.36-1.74 3.48-.077-.93-.115-1.627-.115-2.09zM412.026 86.32c-.96 1.278-2.767 3.356-5.424 6.236-3.944 4.91-6.146 7.363-6.61 7.363-.16 0-.295-.03-.41-.088-1.684 1.01-6.622 3.283-14.818 6.813-3.098 1.338-5.534 2.402-7.308 3.192-.023-.017-.055-.023-.088-.03-2.773-.48-7.598-.867-14.472-1.158-1.602-1.826-3.313-4.308-5.13-7.454-1.71-4.235-2.693-6.693-2.96-7.365-.067-.057-.126-.135-.175-.23l-.115-.465c0-.133.138-.433.406-.896.045-.078.095-.154.146-.234.35-.603.885-1.424 1.595-2.465.734-1.12 1.606-2.434 2.61-3.943 1.666-2.86 2.77-4.658 3.308-5.396l.027-.028c-.018-.028-.027-.058-.027-.085 0-.15.127-.27.377-.35.45-.49.792-.678 1.015-.55 1.138-.678 3.034-1.632 5.682-2.87 4.335-2.01 9.582-4.137 15.747-6.38 1.496-.548 2.77-1.013 3.827-1.395.08.07.3.13.668.175 6.96 1.003 10.824 1.547 11.6 1.625.195.078.36.165.49.26.086.24.213.512.377.81-.013.098-.03.185-.06.26.147.13.3.265.465.407.51.815 1.242 1.802 2.203 2.96.54.68 2.115 3.076 4.73 7.192 1.056 1.998 1.83 3.36 2.326 4.09zm-5.828 4.206c.655-.684 1.62-1.833 2.9-3.45-.37.157-.766.32-1.19.492-.297.533-.87 1.52-1.71 2.958zm-48.835 4.7l1.623 4.114c.426 1.198 1.335 2.9 2.727 5.105.524.846.938 1.522 1.247 2.03.312-.034.688-.034 1.132 0 1.314.115 5.373.54 12.18 1.275.042.017.08.035.114.058.695-1.23 2.243-3.957 4.64-8.177 1.11-1.786 2.04-3.138 2.786-4.06-.196-.246-.48-.66-.84-1.246 1.272 2.143-.07.142-4.033-6.002l-2.613-5.335c-1.64-.027-4.27-.394-7.885-1.102-1.665-.33-2.967-.628-3.914-.9-.154.06-.292.11-.406.146-.483 1.045-1.766 3.21-3.86 6.498-1.68 2.63-2.926 4.458-3.74 5.48.4.61.68 1.316.84 2.117zm43.266-22.71c-1.636.953-5.62 2.644-11.948 5.078-2.436 1-4.583 1.896-6.438 2.668-1.935.802-3.46 1.393-4.582 1.77.208.358.4.772.58 1.244.235.73.567 1.515.985 2.35.416.84 1.236 2.133 2.466 3.885 1.23 1.75 2.03 2.9 2.406 3.45.383.556.558.885.524.987l13.513-5.334c5.088-1.91 8.858-3.178 11.31-3.798-.985-1.27-2.282-3.22-3.886-5.86-1.613-2.632-2.714-4.207-3.307-4.727-.578-.52-1.12-1.09-1.624-1.71zm-1.625-.9c-1.126-.273-2.964-.504-5.51-.692-2.548-.185-4.142-.358-4.784-.524-.912.415-2.234.96-3.972 1.625-3.985 1.508-6.343 2.416-7.078 2.727-.27.116-2.82 1.355-7.655 3.71-.962.477-1.812.89-2.55 1.248.757.062 1.604.147 2.55.26 2.79.33 4.79.686 6.003 1.072.045-.018.094-.034.145-.06.15-.065.305-.135.463-.203 10.27-4.57 17.8-7.603 22.593-9.106-.068-.018-.135-.04-.205-.057zm-12.18 24.826c-1.08 1.817-1.758 3.13-2.028 3.944-.696 1.74-1.18 2.842-1.45 3.306-.23.31-.6.87-1.102 1.683-.183.3-.337.562-.464.782.65-.314 1.356-.65 2.118-1.015.418-1.253 1.568-3.61 3.45-7.075 1.115-2.105 1.977-3.585 2.58-4.438-.592.18-1.192.365-1.798.55-.224.414-.658 1.17-1.305 2.262zm-1.797.29c-.493.887-1.537 2.685-3.132 5.395-1.6 2.722-2.8 4.646-3.593 5.77.672-.355 1.512-.78 2.523-1.275.118-.392.38-.923.78-1.595.504-.812.85-1.315 1.045-1.508.347-.543.852-1.705 1.51-3.48.155-.463.446-1.04.87-1.74.58-.93.927-1.51 1.043-1.744.232-.577.54-1.158.926-1.74l.145-.348c-.358.12-.727.236-1.103.348-.18.38-.518 1.017-1.014 1.916zm6.146-1.972c.272-.62.563-1.16.873-1.626.027-.058.06-.116.086-.175-.41.12-.824.248-1.246.376-.267.56-1.506 2.77-3.71 6.64-.31.54-.93 1.664-1.86 3.362-.38.59-.643 1.083-.783 1.48.698-.322 1.443-.66 2.233-1.016.216-.545.567-1.316 1.044-2.32 1.043-2.165 1.586-3.306 1.625-3.42.156-.426.427-.987.812-1.683.542-.924.852-1.465.927-1.62zm12.907-5.742c-.645.23-1.332.474-2.06.726-2.75 4.847-4.763 8.18-6.03 10.004.69-.26 1.31-.483 1.855-.667.146-.285.358-.646.64-1.073.502-.733.85-1.197 1.043-1.394 1.082-1.585 1.778-2.61 2.088-3.074l1.74-3.132c.24-.52.482-.983.725-1.39zm-5.972 2.03l-2.09.667c-2.5 4.886-4.27 8.306-5.307 10.27.552-.246 1.074-.475 1.565-.697.287-.893 1.366-2.76 3.248-5.597.425-.692 1.178-2.065 2.26-4.114.12-.202.227-.373.325-.528zm-3.046 1.22l.09-.26c-.712.224-1.446.456-2.205.693-.14.504-1.213 2.582-3.22 6.236l-1.51 3.19c-.198.47-.373.884-.522 1.246.298-.143.61-.288.926-.436.32-.144.63-.29.93-.435.27-.58.718-1.42 1.332-2.522.542-.966 1.12-1.952 1.742-2.96l1.68-3.13c.43-.965.68-1.505.758-1.62zm9.02.462c.332-.555.71-1.193 1.13-1.912.41-.995.933-1.924 1.564-2.785-.505.18-1.04.375-1.593.58-.453.883-1.508 2.736-3.163 5.567-1.196 1.817-1.896 2.842-2.09 3.074-.34.572-.642 1.054-.895 1.45.05-.006.098-.017.142-.028.256-.506 1.257-1.775 3.016-3.796.717-.825 1.346-1.54 1.888-2.15zm-8.035 3.307c-1.585 2.494-2.572 4.127-2.958 4.9.557-.235 1.09-.456 1.593-.667 1.82-2.51 3.045-4.368 3.682-5.567.5-1.08 1.104-2.126 1.797-3.13l.928-1.51-2 .667c-.3.626-1.317 2.396-3.043 5.307z"/>
  <path fill="#545454" d="M385.157 71.29c-.194-2.94-.388-6.246-.58-9.917-.388-7.695-.58-14.54-.58-20.532 0-3.556.076-6.185.232-7.888-.234-9.086-.332-14.577-.293-16.47-.19-2.747-.308-6.4-.347-10.965-.116-3.324-.177-5.78-.177-7.364 0-1.375-.104-2.556-.32-3.538h-1.42v.174c0 1.548.153 6.747.463 15.6.35 8.857.522 14.21.522 16.068 0 3.014-.077 5.278-.23 6.784v15.14c.23 2.9.444 8.41.64 16.53.114 2.667.252 4.794.406 6.38M468.814 140.042v.23c-4.602 7.94-8.16 13.915-10.672 17.923-.037.06-.076.12-.115.176-1.663 2.632-2.86 4.392-3.596 5.278.04.078.08.175.118.29 0 .58-.37.87-1.104.87-.347 0-.6-.078-.752-.232l-9.746-.058c-3.827-.425-8.39-.677-13.687-.754-2.438 0-3.655-.425-3.655-1.276v-.06c-.657-.656-1.526-1.682-2.61-3.073-.154-.193-1.623-2.242-4.407-6.146-4.098-5.377-6.186-8.683-6.263-9.92-.232-.194-.33-.464-.29-.81 1.74-4.41 3.4-8.894 4.987-13.456 1.12-3.44 2.068-5.876 2.842-7.307.04-.463.155-.793.348-.987.04-.85.27-1.508.695-1.972 5.46-.946 10.94-1.652 16.443-2.117.64-4.216.957-6.544.957-6.987 0-2.9-.078-5.028-.232-6.382V86.8c-.31-3.83-.502-6.42-.578-7.773-.04-.89-.06-2.842-.06-5.857 0-6.147.214-11.252.638-15.312v-69.572c-.155-2.978-.232-5.2-.232-6.67h1.74c.006 1.46.063 3.55.174 6.264v70.327c-.425 3.944-.637 8.952-.637 15.02 0 2.98.02 4.892.057 5.744.04 1.044.233 3.558.58 7.54v16.473l.233.81v11.37c.038.077.114.154.23.23.116.156.175.35.175.58v.437c4.277-.29 8.57-.436 12.876-.436.117.117.254.233.408.35.115.076.23.21.346.404.27.31.68.755 1.22 1.335.192.27 2.628 3.48 7.308 9.628.502.696 2.572 3.79 6.207 9.28v.058c.616 1.044.925 1.624.925 1.74-.115.038-.174.136-.174.29l.175.174c-.232.192-.523.46-.87.81zm-.58-.755c-.463-.463-1.855-1.778-4.175-3.944-2.514-1.76-5.772-4.166-9.774-7.22-4.003-3.054-6.91-5.075-8.728-6.062-.195.51-.012 2.202.55 5.075.562 2.88 1.306 7.18 2.233 12.905 1.276 6.38 2.067 10.17 2.378 11.37 1.548-1.238 3.383-2.553 5.512-3.946 5.218-3.364 8.97-5.896 11.25-7.598.195-.154.387-.29.58-.406.04-.075.098-.134.174-.173zm-52.255-1.912c.463-.193 1.042-.426 1.738-.696.89-.35 1.566-.563 2.03-.64v-1.044-1.45c-.464.194-1.122.446-1.972.754h-.52c-.39.967-.815 1.992-1.277 3.075zm-.408 1.043c-.35.734-.695 1.528-1.043 2.377-.08.04-.1.078-.06.116.116-.037.773-.385 1.97-1.043 1.123-.695 2.245-1.102 3.365-1.217-.077-.27-.096-.562-.058-.87v-.87l-.232.115c-.85.348-1.43.58-1.74.696-1.004.39-1.738.62-2.203.698zm2.32-5.336c.696-.31 1.315-.464 1.856-.464 0-1.197.02-2.01.058-2.437-.038-1.274.06-2.395.29-3.362-.386.85-.772 1.838-1.158 2.96-.35 1.042-.773 2.182-1.275 3.42.074-.04.15-.078.23-.116zm-1.218 8.7c-1.314.503-2.262.948-2.84 1.334 0 .038.076.135.23.29.27.62.773 1.488 1.508 2.61.04-.154.078-.31.116-.464.27-.927.445-1.47.522-1.623l.348-1.8c0-.116.038-.233.116-.35zm-.405 5.337c.385.617.83 1.313 1.332 2.086.078-.464.195-1.005.35-1.624.387-1.316.637-2.204.754-2.668.387-1.702.58-2.592.58-2.668.154-.658.348-1.16.58-1.508.076-.116.135-.193.174-.232-.852.193-1.684.484-2.494.87-.505 2.745-.93 4.66-1.277 5.743zm34.682-23.085c2.552 1.74 5.644 3.925 9.28 6.554l6.552 5.102c-2.784-3.13-4.33-5.103-4.64-5.914-4.716-6.032-7.81-10.093-9.28-12.18-1.353.58-3.48 1.7-6.38 3.363.968.658 2.457 1.683 4.468 3.075zm.116-7.31l-10.876.96c-.24.677-.654 1.015-1.247 1.015-.81 0-1.333-.234-1.564-.698-.004-.024-.004-.053 0-.086l-9.25.812c-.03.096-.08.22-.145.377-.08.138-.146.245-.204.318 5.574.368 11.095.55 16.56.55 0 .078-.02.156-.06.233l6.09-3.305c.195-.04.427-.096.698-.174zm-29.058 4.99c-.193 2.087-.387 5.954-.578 11.6-.116 1.895-.232 3.382-.35 4.466 4.652-3.71 8.935-7.085 12.847-10.12 3.91-3.038 6.8-5.153 8.67-6.35-3.133-.156-5.684-.214-7.656-.175-7.038-.116-11.29-.077-12.76.116-.193.156-.252.31-.174.465zm5.51-2.93l-3.712.32c1.23.103 2.458.2 3.684.29-.02-.048-.03-.107-.03-.174 0-.176.02-.322.06-.434zm-4.582 21.373c.35.193.754.406 1.22.638 4.754 2.127 7.73 3.46 8.93 4.002.08 0 .35.08.813.232.04 0 .077.038.116.116 3.17 1.004 5.685 1.836 7.54 2.493 2.784 1.16 5.026 2.166 6.728 3.015.078.116.154.27.232.465l-4.696-29.174c1.288-1.337-2 1.07-9.862 7.222-7.86 6.154-11.783 9.412-11.77 9.773 0 .353.04.623.114.81.155.08.33.176.522.292l.114.116zm6.322 6.09c.193 1.005.58 2.436 1.16 4.292.27 1.236.927 4.08 1.972 8.525 0 .233-.02.405-.06.522.078-.04.176-.078.29-.117 1.587-.424 3.114-.868 4.583-1.332-.426-1.277-.89-3.172-1.393-5.684l-.928-5.396c-.967-.386-1.682-.637-2.146-.753-.27-.115-.52-.232-.754-.348.465 1.354.85 2.938 1.16 4.755.27 1.16.89 3.423 1.855 6.786 0 .387-.212.6-.638.64-.31-.89-.908-2.998-1.8-6.323-.85-3.17-1.333-5.24-1.448-6.205-.812-.35-1.566-.678-2.262-.987.12.465.253 1.006.408 1.625zm-3.77-3.074c-.58-.27-1.12-.503-1.624-.696.23 1.508.386 2.378.464 2.61.58 1.624 1.043 3.402 1.392 5.336.116.62.638 2.532 1.565 5.74.89 2.94 1.334 4.545 1.334 4.816v.174c1.16-.62 2.263-1.104 3.308-1.45-.426-.155-.832-1.237-1.218-3.247-.464-2.59-.792-4.293-.985-5.104-.93-3.442-1.55-5.82-1.858-7.135-.58-.27-1.12-.502-1.624-.695.04.115.078.232.117.348l.463 2.322c.154.965.503 2.493 1.043 4.58.154.93.62 2.67 1.395 5.22.696 2.397 1.044 3.654 1.044 3.772.076.425-.06.637-.406.637-.58 0-1.488-2.84-2.727-8.524l-1.68-8.468v-.234zm-3.248-1.45c.078 2.745.368 4.853.87 6.32 1.973 6.11 3.46 10.577 4.466 13.4.078-.08.154-.02.232.174.076-.04.154-.077.23-.116-.23-.348-.676-1.645-1.334-3.887-.695-2.357-1.256-4.523-1.682-6.495-1.197-4.37-1.933-7.424-2.203-9.163-.23-.078-.424-.155-.578-.232zm-2.03-1.275c-.116-.118-.175-.1-.175.056.155-.115.232.215.232.988-.968 4.175-1.624 7.074-1.973 8.7.31.462.638.946.985 1.448.117.154.367.464.754.928 0-.54.06-1.14.175-1.797.195-1.006.33-1.76.408-2.262.115-1.353.193-2.125.232-2.318.04-.194.096-.368.173-.523-.154-.85-.25-1.78-.29-2.783-.077-.696-.02-1.335.174-1.915-.386-.234-.618-.408-.695-.523zm1.044 9.336c-.038.31-.135 1.14-.29 2.495-.077.5-.136.908-.175 1.218.505.656 1.124 1.47 1.858 2.436V153.034c0-.193.097-.443.29-.752-.426-1.123-.89-2.593-1.394-4.41-.075.54-.17 1.18-.288 1.914zm15.254 1.856c.31 1.392.89 3.44 1.74 6.15.232-.118.465-.215.695-.292.27-.078.64-.214 1.103-.407-.58-1.43-1.333-4.35-2.26-8.76-.774-.347-1.47-.655-2.09-.925.04.115.058.23.058.348l.754 3.886zm2.435-2.784c.387.966.62 2.03.695 3.19.117 1.508.542 3.055 1.277 4.64.5-.23 1.062-.503 1.682-.81-.465-1.044-1.083-2.998-1.857-5.858v-.29c-.616-.312-1.218-.6-1.798-.872zm6.67 5.51c.773-.388 1.605-.812 2.494-1.276-.93-.463-2.282-1.102-4.062-1.914.155.232.33.54.522.928.35.696.698 1.45 1.045 2.262zm-2.494-3.597c-.384-.153-.772-.327-1.158-.52l-.58-.232c.23.387.503 1.025.812 1.913.426 1.084.832 2.263 1.22 3.54.462-.232.985-.483 1.565-.753-.427-.773-1.065-1.992-1.916-3.654 0-.118.02-.213.057-.292zm8.962 2.496c.092-.232.18-.445.262-.64-.193.118-.37.233-.523.35l-.144.144c.13.04.266.09.406.146zm-.956.986c0 .078.098.503.29 1.276.11-.418.248-.873.406-1.362l-.637-.26h-.146c.03.104.06.22.086.346zm12.99-10.44v.406c.233-.31.446-.618.64-.928-.233.153-.445.33-.64.522zm-3.942 3.19l-.06.52c.07.036.15.077.233.117.053.025.264.084.64.175.093-.337.15-.55.174-.64.074-.325.135-.605.175-.84l-.29-.145c-.295.225-.584.438-.87.637v.175zm3.248-2.668c-.387.31-.792.64-1.217.986v.318c.016.015.037.023.057.03.247.073.47.14.668.202.062-.525.226-1.038.492-1.536zm-1.334 2.232c-.034.373-.072.73-.115 1.073.197-.348.39-.677.58-.986-.153-.025-.307-.054-.465-.088zm-3.305 1.365c-.145.74-.28 1.447-.408 2.116.152.062.307.13.465.204.015-.137.033-.272.06-.406.118-.777.214-1.405.29-1.886l-.32-.116c-.028.027-.058.057-.087.09zm-1.306 1.74l.145-.928c-.27.193-.52.387-.754.58l-.03.115c.193.06.404.137.64.233zm-.842.61l-.376 1.74c.23.067.502.165.81.288.013-.052.022-.1.03-.145l.23-1.624c-.256-.087-.488-.174-.695-.26zm-.752-.205c-.31.195-.602.407-.87.64-.02.177-.048.38-.088.608.196.103.41.22.638.35l.203-.9c.04-.273.078-.502.117-.698zm-1.074 2.09c-.122.603-.276 1.327-.464 2.174.143.063.287.13.435.2l.117.06.492-2.205c-.214-.086-.408-.165-.58-.23zm-.843-.378c-.085-.04-.16-.078-.23-.115-.154.46-.386 1.137-.697 2.028.108.058.225.116.35.175.223-.855.415-1.543.578-2.06v-.028zm3.828 1.567c-.11.645-.208 1.234-.29 1.768l.9-1.565c-.192-.06-.395-.127-.61-.203zm.668-.436c.033-.468.11-1.066.232-1.798-.18-.075-.334-.142-.465-.204-.118.617-.225 1.197-.32 1.74.176.086.358.173.553.262zm-2.348-.232l-.494 2.205c.26.088.55.175.87.26.193-.895.34-1.61.436-2.145-.358-.138-.627-.243-.81-.32zm4.696-4.176c-.222-.064-.472-.14-.752-.23-.02-.008-.04-.02-.058-.03-.064.414-.142.926-.232 1.537-.05.29-.088.57-.117.84.124.055.25.112.378.175.184-.312.367-.61.55-.898.04-.348.1-.717.177-1.102.022-.1.042-.198.056-.292zm-1.275 3.132c.035-.06.062-.118.09-.174l-.06-.028c-.016.07-.025.136-.03.202zm-5.365 3.508c-.115.503-.24 1.034-.375 1.594.162.06.326.115.49.176.176-.61.32-1.123.436-1.537-.173-.062-.347-.132-.52-.203l-.03-.03zm-.522 2.29c-.11.444-.228.908-.348 1.394.13.06.265.116.405.174.047-.19.095-.385.146-.58.087-.295.165-.574.233-.842-.145-.05-.29-.098-.435-.145zm1.305.408l-.318 1.508c.12.053.234.1.348.146.258-.472.52-.944.783-1.42-.28-.08-.55-.157-.813-.234zm.87-.29c.06.018.116.038.175.058.062-.458.17-1.018.32-1.68-.277-.08-.566-.178-.87-.29l-.35 1.593c.24.104.483.21.725.318zm-1.45 3.016c.08-.144.158-.29.232-.437-.043-.016-.083-.033-.116-.058l-.117.494zm-2.175-4.554l.58.262c.128-.472.233-.877.32-1.217.024-.11.056-.217.087-.32l-.465-.203c-.116.328-.242.675-.376 1.043-.05.142-.1.286-.146.435zm-.378 1.42c.033.292.1.62.206.987.042.01.08.02.114.03l.03-.087c.138-.47.263-.904.376-1.306-.204-.068-.396-.138-.58-.204-.05.187-.1.38-.146.58zm.988 3.367c.116.348.253.714.407 1.1.024-.574.133-1.29.32-2.145-.196-.062-.342-.11-.437-.145-.09.39-.19.787-.29 1.19zm-29-3.423c.35.54.755 1.063 1.218 1.566-.734-2.243-1.236-3.886-1.508-4.93-.038 1.198-.098 2.127-.174 2.783.154.194.31.387.465.58zM148.132 21.896c-1.816-4.123-6.75-6.646-10.168-9.493.02-.034.04-.07.05-.115.78-3.77.153-8.136.02-12.032-.29 0-.578-.002-.867-.01-.127 3.72-.69 7.86-.064 11.512-.29-.083-.6.032-.8.312-2.624 3.666-6.59 6.355-8.89 10.21-.293.082-.527.423-.328.733 2.58 4.04 5.814 7.73 9.564 10.718.298.238.6.23.895 0 3.824-2.95 7.8-6.157 10.36-10.318.167-.27.077-.51-.104-.652.293-.127.49-.508.332-.864zm-16.254 5.383c.074-.257.1-.52.037-.783-.02-.08-.137-.075-.158 0l-.13.48c-.565-.685-1.12-1.374-1.677-2.063.816.678 1.723 1.283 2.648 1.834-.232.238-.39.505-.492.8-.074-.09-.152-.178-.228-.27zm1.818 2.047c-.164-.178-.338-.347-.5-.526.316-.413.553-.937.467-1.378-.02-.11-.16-.125-.236-.062-.24.21-.36.548-.5.826-.033.063-.068.125-.104.188-.143-.16-.283-.317-.42-.48.16-.325.303-.658.418-1.007.593.344 1.192.662 1.792.95-.312.185-.502.562-.654.87-.098.196-.19.404-.262.62zm1.246 1.273c.098-.562.275-1.082.525-1.603.03-.067-.06-.15-.11-.086-.345.422-.534.98-.567 1.534-.248-.244-.492-.486-.73-.736.105-.253.2-.51.318-.757.156-.325.422-.628.525-.978.395.187.787.357 1.174.517-.412.723-.676 1.603-.764 2.45-.12-.116-.25-.223-.37-.34zm1.313-1.11c-.03.732-.078 1.492-.072 2.238-.178-.147-.34-.31-.512-.465.222-.588.435-1.217.587-1.852-.002.026-.002.06-.002.08zm.236-9.62c-.122 2.377-.52 4.864-.284 7.243-1.248-.725-2.55-1.36-3.78-2.123-1.313-.814-2.495-1.805-3.745-2.702 2.99-2.465 5.88-5.423 8.16-8.567-.163 2.048-.243 4.1-.35 6.15zm.677 8.917c.232-.146.47-.286.705-.426-.266.372-.492.772-.676 1.185 0-.218 0-.492-.03-.758zm.926 3.084c.293-.726.605-1.43.984-2.135.35-.65.96-1.537.754-2.306-.02-.077-.12-.105-.177-.046-.334.35-.457.814-.65 1.252-.246.556-.543 1.09-.82 1.63-.277.546-.652 1.194-.697 1.837-.076.02-.158.05-.232.06.02-.565.002-1.138-.02-1.707.265-.493.542-.98.85-1.452.255-.396.54-.785.76-1.205.724-.403 1.456-.786 2.19-1.163-.857 1.438-1.812 2.976-1.945 4.615-.355.254-.687.465-.997.62zm1.324-.87c.596-1.597 1.71-2.966 2.13-4.628l.956-.49c-.664 1.22-1.19 2.563-1.646 3.865-.493.46-.98.896-1.44 1.254zm1.922-1.71c.69-1.063 1.163-2.317 1.42-3.54.405-.21.81-.427 1.212-.643-.307.517-.37 1.21-.355 1.775-.725.814-1.5 1.648-2.278 2.408zm2.417-2.565c.068-.635.287-1.17.496-1.768.65-.352 1.293-.712 1.92-1.098-.596.742-1.453 1.78-2.416 2.865zm3.36-4c-.083-.22-.292-.375-.57-.264-3.313 1.34-6.644 3.093-9.612 5.114-.016-.016-.03-.027-.045-.043 1.342-3.955 1.023-9.106.787-13.488 3.23 2.834 6.52 5.446 9.525 8.575.02.02.04.027.06.043-.05.016-.097.037-.144.065zM205.92 7.042c-2.067-5.893-8.673-2.55-13.24-1.606-.554.115-1.106.226-1.66.34-.017-1.84-.075-3.754-.42-5.532-.257.007-.515.015-.772.016-.34 1.866-.24 3.885-.19 5.8-2.415.494-4.833.982-7.255 1.444-2.295.438-4.975.746-6.834 2.282-.114.094-.173.2-.208.304-2.89 1.857-3.688 7.395-1.873 10.666.995 2.62 3.788 3.71 6.175 3.106.084.044.18.077.3.073 3.74-.07 7.112-1.256 10.726-2.084 3.507-.804 7.02-1.574 10.532-2.35 2.145-.475 4.246-.764 5.023-3.016 1.128-3.27.823-6.224-.306-9.442zm-25.882 14.923c-1.963 1.328-3.963-.007-5.258-1.525-1.746-2.99-1.256-8.03 1.94-9.24 3.735-1.413 5.276 3.657 5.41 6.353.09 1.79-.58 3.388-2.092 4.412zm24.525-5.938c-.52 1.732-3.67 2.22-5.742 2.537.51-.735.368-2.098.34-2.88-.007-.228-.345-.228-.353 0-.02.556-.05 1.105-.148 1.655-.08.445-.33.852-.34 1.3-.257.04-.49.08-.685.12-.244.05-.488.11-.732.165.324-.295.465-.79.582-1.204.164-.58.225-1.187.225-1.787 0-.295-.447-.294-.457 0-.02.566-.11 1.106-.268 1.65-.127.44-.416.896-.367 1.357.002.017.008.03.016.046-.33.075-.66.146-.99.226.5-.812.48-2.208.463-3.028-.002-.167-.25-.166-.258 0-.028.643-.124 1.25-.32 1.862-.144.438-.42.852-.464 1.31-.33.084-.66.164-.99.25.322-.94.37-2.075.373-2.92 0-.29-.442-.288-.446 0-.016.688-.076 1.36-.23 2.034-.087.377-.25.724-.407 1.07l-1.486.404c.505-1.06.317-2.577-.067-3.535-.045-.112-.207-.072-.182.05.17.81.163 1.588-.056 2.39-.137.49-.426.902-.625 1.35-.517.142-1.03.283-1.546.422.22-.405.377-.86.545-1.27.347-.84.515-1.76.515-2.667 0-.32-.47-.314-.492 0-.068.98-.396 1.833-.783 2.726-.21.49-.496.93-.617 1.43-.52.14-1.045.28-1.566.41.977-.915 1.22-2.9 1.217-4.063-.002-.334-.502-.33-.518 0-.03.743-.172 1.44-.414 2.14-.252.724-.838 1.33-.973 2.08v.01c-.698.164-1.397.322-2.1.46 1.415-1.186 2.12-3.498 1.962-5.19-.025-.283-.465-.29-.445 0 .066 1.108-.16 2.066-.686 3.04-.45.844-1.235 1.462-1.67 2.298-.464.082-.93.165-1.394.23.475-.5.875-1.108 1.14-1.86 1.235-3.53.06-9.206-3.7-10.77 2.754-.743 5.697-1.056 8.443-1.562 2.655-.49 5.3-1.07 7.946-1.608 1.955-.398 6.72-2.273 8.092.15 1.573 2.787 1.55 6.203.655 9.172z"/>
  <path fill="#005059" d="M200.925 15.18c-.012-.243-.354-.24-.375 0-.05.56-.146 1.113-.295 1.653-.13.463-.357.872-.396 1.354-.013.117.144.162.218.09.76-.71.896-2.11.847-3.096zM202.646 14.638c-.06-.2-.336-.113-.31.084.08.52.036 1.032-.08 1.54-.09.396-.31.743-.39 1.14-.02.097.088.22.188.145.847-.624.855-1.998.592-2.91z"/>
  <path fill="#545454" d="M336.893 73.342c-.068-2.7.135-5.55-.39-8.216.022-.46.036-.923.057-1.384-5.763-.668-10.64-4.083-16.362-4.648v-78.92h-1.38V59.04c-3.03.08-6.192 1.565-8.967 2.49-3.717 1.24-7.63 1.778-11.248 3.307l-.01-.01c-.127-.112-.346-.042-.344.142v.01l-.027.012c-.333.15-.27.51-.054.704.017.077.053.15.098.215.068 6.518.387 13.13.822 19.626.002.05.023.084.033.128-.03.23.044.472.27.606 6.21 3.764 13.8 6.115 21.082 5.883.294-.01.544-.174.685-.414.717-.29 1.35-.742 2.062-1.132 1.508-.824 3.14-1.44 4.727-2.104 1.99-.833 4.005-1.61 5.935-2.562.03.004.062.014.095.017.123.014.185-.064.196-.16.688-.346 1.363-.713 2.023-1.117.01-.006.012-.014.02-.02.297.024.605-.167.653-.58.423-3.53.114-7.192.023-10.74zm-1.723 5.596c-.736-.873-1.754-1.48-2.594-2.266-.863-.814-1.646-1.723-2.425-2.618-1.39-1.6-2.747-3.27-4.434-4.567.562-.183 1.12-.375 1.672-.568 2.31 2.917 4.764 6.616 7.984 8.692-.002 1.643.02 3.287.147 4.91-1.647-2.076-3.572-3.932-5.436-5.812-2.155-2.177-4.186-4.517-6.433-6.6.547-.147 1.09-.323 1.633-.495.008.023.006.048.022.067 1.608 1.755 3.144 3.56 4.698 5.36 1.293 1.498 2.963 3.708 4.947 4.262.233.066.357-.203.22-.366zm-.217-4.29c-1.473-2.376-3.716-4.276-5.423-6.512.503-.187.995-.37 1.478-.548.774.89 1.55 1.748 2.27 2.688.496.648 1.23 1.828 2.097 1.955.002.003.006 0 .01 0 .01.374.015.744.015 1.112 0 1.09-.015 2.19-.02 3.295-1.126-1.14-2.325-2.22-3.388-3.426-1.316-1.493-2.58-3.028-3.847-4.563l.828-.304c1.56 2.37 3.495 4.833 5.75 6.535.138.105.314-.096.23-.23zm-3.57-7.196c.338-.125.677-.25 1-.364.104-.037.148-.125.164-.218.076-.026.146-.055.223-.084.39.496.83.96 1.214 1.46.334.437.77 1.347 1.35 1.483.007.61.02 1.22.038 1.826-.195-.237-.435-.438-.658-.672-.435-.46-.814-.974-1.22-1.462-.593-.716-1.242-1.566-2.11-1.97zm4.135-1.71c-.07.5-.117 1.006-.146 1.515-.125-.19-.232-.36-.238-.627-.004-.152-.246-.148-.234 0 .032.35.173.652.466.85-.02.416-.036.832-.038 1.25-.25-.345-.582-.67-.783-.914-.352-.427-.736-.9-1.192-1.248.727-.274 1.456-.55 2.165-.827zm-15.32-5.16c.403.016.81.05 1.22.116 3.692.596 7.656 3.504 11.588 4.36-2.316.76-4.64 1.663-6.813 2.645-3.52.984-6.976 2.16-10.83 1.56-5.14-.8-10.065-2.43-15.065-3.79 3.343-.687 6.7-1.52 9.95-2.507 2.815-.855 5.636-2.117 8.57-2.354m-18.095 24.885c-.073-4.428-.36-8.852-.588-13.273-.08-1.574.087-3.91-.493-5.683 5.356 2.05 11.042 3.437 16.692 4.31.854.132 1.746.152 2.65.1.172 6.356.665 12.686.69 19.055.01 2.638-14.96-2.95-18.95-4.508zm20.548 4.656V87.38c.24.295.5.575.78.84.278.266.616.59.99.785-.642.337-1.257.714-1.77 1.148zm5.236-2.68c-.812.35-1.863.75-2.893 1.245-.357-.33-.797-.583-1.154-.908-.458-.412-.854-.89-1.193-1.404 0-.48-.004-.963-.007-1.444.932 1.137 2.037 2.17 3.31 2.753.12.057.228-.08.142-.184-1.04-1.24-2.29-2.32-3.457-3.464-.006-.498-.012-.996-.02-1.496 1.4 1.906 3.283 3.996 5.417 4.844l-.146.06zm.85-.357c-1.002-.867-2.163-1.58-3.162-2.455-1.13-.99-2.112-2.142-2.987-3.36-.015-.55-.037-1.1-.06-1.65.922 1.54 2.146 2.892 3.42 4.162.935.934 2.26 2.193 3.624 2.956l-.834.348zm1.894-.79c-1.224-1.146-2.78-2.06-3.977-3.22-1.586-1.54-2.938-3.233-4.197-5.04-.03-.573-.066-1.143-.107-1.712 1.315 1.662 2.634 3.327 4.065 4.894 1.48 1.616 3.23 3.557 5.35 4.292.223.076.357-.217.216-.37-1.508-1.638-3.444-2.873-5.026-4.46-1.647-1.655-3.165-3.434-4.674-5.215-.047-.566-.106-1.13-.167-1.693 2.152 2.48 4.124 5.11 6.385 7.5 1.278 1.352 2.875 2.996 4.674 3.936-.847.37-1.692.73-2.542 1.087zm3.695-1.608c-2.224-1.624-4.357-3.137-6.31-5.218-2.03-2.168-3.9-4.486-5.968-6.627-.013-.015-.027-.02-.043-.03-.082-.676-.17-1.35-.276-2.018.13-.02.26-.05.39-.068 1.682 2.753 3.748 5.188 5.985 7.516 2.062 2.15 4.366 4.504 6.96 6.086-.247.116-.49.244-.738.358zm2.55-1.237c-.41.214-.83.403-1.247.605-1.918-2.05-4.234-3.772-6.25-5.722-2.445-2.36-4.705-4.916-6.638-7.715.585-.108 1.177-.246 1.765-.396 1.63 2.325 3.69 4.348 5.653 6.39 2.185 2.275 4.36 4.637 6.798 6.646.006.055.006.11.012.165-.032.013-.063.012-.092.028zM354.75 147.48c2.232 2.605 4.857 4.894 7.227 7.39-.03.442.417.81.864.622.286-.012.565-.21.6-.484 1.362-1.244 2.54-2.698 3.936-3.945 1.156-1.03 2.077-2.115 2.615-3.574.93-2.514-2.405-5.945-3.774-7.714-.147-.188-.354-.197-.53-.115-.03-.017-.06-.034-.093-.05-.028-.016-.055-.033-.084-.047-.05-.02-.102-.03-.15-.047-.074-.027-.148-.05-.228-.07-.02-.004-.034-.008-.052-.014-.13-.033-.26-.06-.396-.076h-.007c-.082-.012-.164-.02-.248-.025-.793-.078-1.64-.015-2.386-.06-.92-.058-2.764-.53-3.6-.04-2.166 1.268-2.743 5.305-3.822 7.268-.187.337-.117.697.128.982zm4.8-6.797c1.633.062 4.44.996 5.945.07l.017.007c.938 2.37 3.953 4.73 2.523 7.284-.64 1.14-1.93 2.047-2.896 2.896-.942.827-1.593 1.743-2.318 2.682-1.598-2.672-4.428-4.608-6.546-6.88.745-1.92 1.737-6.115 3.275-6.06zM242.495 100.64c2.232 2.606 4.857 4.895 7.227 7.392-.03.44.417.81.864.62.285-.01.564-.21.598-.483 1.363-1.245 2.542-2.7 3.937-3.946 1.157-1.03 2.078-2.115 2.616-3.574.928-2.513-2.406-5.944-3.775-7.713-.146-.188-.353-.197-.53-.115-.03-.018-.06-.035-.092-.05-.028-.017-.055-.034-.084-.048-.048-.02-.1-.03-.15-.047-.073-.027-.147-.05-.227-.07-.02-.004-.034-.008-.052-.014-.13-.033-.26-.06-.396-.076h-.008c-.082-.012-.164-.02-.248-.025-.792-.08-1.638-.016-2.385-.062-.92-.057-2.765-.53-3.602-.04-2.165 1.27-2.742 5.306-3.82 7.27-.188.336-.118.696.127.98zm4.8-6.797c1.633.062 4.44.996 5.945.07l.017.007c.938 2.37 3.953 4.73 2.523 7.284-.64 1.14-1.93 2.047-2.896 2.896-.94.827-1.592 1.743-2.317 2.682-1.598-2.672-4.428-4.608-6.546-6.88.746-1.92 1.738-6.114 3.276-6.06zM413.818 189.573c.137.433.568.694 1.018.577 2.99-.78 5.95-1.594 9.05-1.78.4-.024.8-.332.772-.772-.15-2.46-.98-4.77-1.452-7.162.117-.877.023-1.688-.194-2.6-.1-.404-.48-.65-.878-.67-3.27-.148-6.332 1.24-9.488 1.876-.365.074-.585.44-.602.788-.157 3.356.768 6.575 1.774 9.743zm-.15-9.07c2.597-.526 5.16-1.46 7.815-1.507.104.312.214.62.315.934.118 2.354 1.043 4.57 1.26 6.92-2.67.104-5.334.775-7.907 1.494-.834-2.55-1.508-5.15-1.48-7.84zM93.11 22.635c4.75 3.457 9.87-6.052 5.2-7.988-.48-.88-1.62-1.354-2.602-1.403-1.28-.065-2.543.913-3.242 1.896-1.654 2.323-1.827 5.698.645 7.495zm.454-6.265c.45-.68 1.14-1.242 1.934-1.44.98-.248 1.633.666 2.502.87.064.02.133.017.2 0 2.134 1.9-1.013 7.774-4.396 5.65-1.812-1.14-1.212-3.622-.24-5.08zM298.01 123.054c.36 1.61.485 3.27.78 4.895.21 1.16.46 2.894 1.477 3.673 1.998 1.535 6.213-2.016 8.057-2.668.264-.092.537-.344.502-.654-.254-2.164-.426-4.718-1.492-6.705.05-.46.03-.896-.266-1.31-.21-.298-.426-.304-.764-.253-.094.016-.197.043-.3.07-.772-.326-1.792.17-2.542.396-1.645.498-3.324.96-4.92 1.613-.4.167-.633.5-.533.944zm5.444-.926c.738-.22 2.006-.365 2.627-.967.794 2.198 1.183 4.368 1.347 6.683-.826.328-1.623.758-2.418 1.148-.585.288-3.253 1.93-3.847 1.468-.842-.654-.936-2.928-1.09-3.88-.174-1.076-.275-2.166-.46-3.236 1.26-.462 2.56-.83 3.84-1.214zM178.897 70.265c.36 1.61.486 3.272.78 4.896.212 1.16.462 2.896 1.478 3.676 1.998 1.535 6.213-2.018 8.057-2.668.264-.094.537-.346.502-.656-.254-2.164-.426-4.72-1.492-6.705.05-.46.03-.896-.266-1.31-.21-.298-.426-.305-.764-.252-.094.015-.197.043-.3.068-.772-.326-1.792.17-2.542.397-1.645.498-3.324.962-4.92 1.612-.4.167-.633.5-.533.943zm5.445-.925c.738-.22 2.006-.365 2.627-.966.792 2.195 1.18 4.365 1.345 6.682-.826.33-1.623.758-2.418 1.15-.584.284-3.252 1.927-3.846 1.465-.84-.653-.935-2.926-1.09-3.88-.173-1.075-.274-2.164-.46-3.236 1.26-.462 2.56-.83 3.842-1.214zM365.304 194.495c1.89 3.076 4.48 5.527 7.145 7.926.346.313 1.024.333 1.247-.16 1.478-3.274 1.712-7.53 1.085-11.11.045-.14.06-.29.025-.465-.02-.105-.083-.188-.162-.258-.1-.273-.48-.322-.675-.138-.942.09-2.194.69-3.156 1.03-1.754.626-3.576 1.2-5.223 2.08-.378.204-.51.735-.286 1.095zm7.282-2.102c.274-.1.664-.198 1.04-.336-.294 2.827-.023 5.716-.934 8.443-2.034-1.86-3.982-3.79-5.527-6.08 1.74-.816 3.622-1.386 5.42-2.027zM117.207 71.295c1.89 3.076 4.48 5.527 7.145 7.926.347.313 1.024.333 1.248-.16 1.478-3.274 1.712-7.53 1.085-11.11.045-.14.06-.29.025-.465-.02-.105-.084-.188-.162-.258-.1-.273-.48-.322-.676-.138-.94.09-2.193.69-3.156 1.03-1.753.626-3.575 1.2-5.222 2.08-.38.204-.51.735-.287 1.095zm7.282-2.103c.272-.1.663-.198 1.038-.336-.293 2.827-.023 5.716-.934 8.443-2.033-1.86-3.98-3.79-5.526-6.08 1.742-.816 3.622-1.386 5.42-2.028zM201.535 117.048c.36 1.61.486 3.272.78 4.896.212 1.16.462 2.895 1.478 3.675 1.998 1.534 6.213-2.018 8.057-2.67.264-.092.537-.344.502-.654-.254-2.164-.426-4.72-1.492-6.705.05-.458.03-.895-.266-1.31-.21-.297-.426-.305-.764-.252-.094.015-.197.043-.3.068-.772-.326-1.792.172-2.542.397-1.645.498-3.324.962-4.92 1.612-.4.167-.632.5-.533.943zm5.445-.925c.738-.22 2.006-.364 2.627-.966.793 2.195 1.182 4.365 1.346 6.682-.826.328-1.623.757-2.418 1.148-.584.286-3.252 1.928-3.846 1.466-.843-.654-.937-2.927-1.09-3.88-.175-1.076-.276-2.165-.462-3.237 1.26-.462 2.56-.828 3.842-1.214z"/>
</svg>
