<svg 
  xmlns="http://www.w3.org/2000/svg" width="511" height="252" viewBox="0 0 511 252">
  <path fill="#545454" d="M232.23 58.988c-.042-.082-.063-.146-.063-.187v-.06c0-.245-.02-.45-.062-.614-.08-.164-.185-.227-.308-.185h-.062v-.06c-6.234-4.717-9.497-7.18-9.784-7.385-2.092-2.42-3.752-4.204-4.98-5.353-1.068-1.108-1.867-1.726-2.4-1.85-.082-.408-.308-.593-.677-.552v-.246h.062v-.613-.554c-.206-3.117-.41-6.625-.615-10.52-.41-8.165-.616-15.427-.616-21.784 0-3.774.082-6.563.247-8.37-.246-9.64-.35-15.464-.31-17.475-.203-2.912-.325-6.79-.367-11.63-.123-3.527-.187-6.134-.187-7.814 0-1.46-.112-2.71-.34-3.753h-1.506v.185c0 1.643.163 7.16.49 16.553.37 9.396.556 15.075.556 17.046 0 3.198-.082 5.6-.247 7.197v16.063c.246 3.077.472 8.922.678 17.537.122 2.83.268 5.086.432 6.768.04.328.082.637.123.924h-.31c.042.533.103.984.187 1.354-.656.533-1.457 1.27-2.4 2.215-1.394 1.313-3.22 3.304-5.477 5.97-2.378 1.887-4.53 3.61-6.46 5.168-3.774 2.996-5.66 4.943-5.66 5.848 0 .285.694.883 2.092 1.783.655.86 1.68 2.052 3.076 3.567 2.585 2.79 4.472 4.656 5.66 5.6.655.492 3.117 2.523 7.385 6.094 1.188.983 2.175 1.806 2.955 2.462v.614l.368.123c.04-.042.103-.145.186-.31.615.534 1.086.924 1.414 1.17 0 .246.04.39.124.43.123.083.225.188.308.31.082.04.245.063.49.063 1.48 0 6.34-7.794 14.585-23.383.45-.533.903-1.045 1.354-1.537h.49c-.166-.29-.307-.56-.43-.805zm-37.043 3.57c8.86-7.59 14.688-12.9 17.478-15.938.202 2.708.613 7.097 1.23 13.17.12 1.518.327 4.818.614 9.905.12 1.27.286 2.356.49 3.26-.778-.408-1.807-.9-3.076-1.476-3.364-1.52-5.19-2.36-5.48-2.523-5.332-2.87-9.085-5.005-11.257-6.4zm8.368 7.568l-.188 1.23-.308-.246c-1.026-1.148-1.95-2.175-2.77-3.077.94.492 1.97 1.025 3.074 1.6l.247.123c-.036.122-.055.247-.055.37zm1.967 3.015l-1.476-1.23c0-.122.02-.245.062-.368.123-.615.204-1.087.246-1.415.533.287 1.087.574 1.66.86-.285.698-.45 1.415-.492 2.154zm2.647-.86c-.33.983-.534 1.845-.616 2.584l-1.292-1.108c.082-.613.185-1.436.308-2.46.575.286 1.128.573 1.66.86-.04.04-.06.082-.06.123zm2.214 2.09c-.04.37-.163.966-.368 1.786-.04.246-.082.472-.123.676l-1.6-1.353c.164-.74.35-1.745.553-3.02.575.248 1.107.516 1.6.803-.042.328-.062.698-.062 1.108zm1.785 4.308l-1.54-1.292c.165-.86.37-2.11.616-3.754.654.287 1.25.557 1.782.803-.08.326-.185.84-.308 1.538-.243 1.106-.428 2.008-.55 2.705zm1.537 1.292l-.737-.613c.08-.78.225-1.56.43-2.338.206-.944.35-1.703.433-2.278.244.124.472.227.678.31-.002.858-.27 2.498-.803 4.918zm.737.616c.083-.37.165-.758.246-1.17l.247-.98c.04.817.122 1.74.246 2.768l-.74-.618zm4.37-2.646c-.614.9-1.146 1.702-1.6 2.397v-.982c0-.615.04-1.312.123-2.092.04-.492.082-1.007.123-1.54.41-.327.964-.84 1.662-1.536l.06 1.6c.042.574.104 1.025.186 1.354-.165.246-.348.513-.553.8zm1.292-1.907l-.185-2.154v-.49c.534-.534 1.107-1.13 1.725-1.785l.062 2.028c-.45.697-.984 1.497-1.6 2.4zm3.876-6.155c-.287.575-.776 1.396-1.476 2.462v-.062c.123-.738.082-1.23-.124-1.48.82-.9 1.744-1.927 2.77-3.073-.37.698-.758 1.416-1.17 2.153zm-6.768 3.448c0-.206-.062-.31-.186-.31-.04-2.175-.205-4.942-.49-8.308-.37-4.266-.598-6.933-.68-8-.45-3.69-.717-6.338-.8-7.937-.245-1.23-.47-2.275-.677-3.138 1.025 1.312 3.242 3.55 6.647 6.706 3.732 3.487 6.748 5.743 9.045 6.77-5.986 6.69-10.272 11.427-12.858 14.218z"/>
  <path fill="#525252" d="M270.124 47.313c.57-.164 2.38-.84 5.415-2.03 1.012-.314 1.844-.513 2.485-.584.3-.03.56-.03.77 0v-.032c0-.69 2.522-.39 7.565.923 4.793 1.304 7.295 2.2 7.508 2.71v-.185c.123.104.188.247.188.43 0 .165-.203 1.333-.613 3.51-.45 2.22-.678 3.69-.678 4.435 0 1.765.08 4.368.244 7.812-.065 2.357-.185 4.23-.34 5.604.065.02.132.058.187.094-.262.094-.398.3-.432.614-.027.312-1.22.93-3.566 1.847-7.94 3.878-12.67 5.815-14.187 5.815h-.217c-.104.123-.217.186-.342.186-.227 0-1.4-.543-3.535-1.63-.022.047-.058.097-.095.152-.082.124-.188.187-.312.187-.213 0-.526-.34-.952-1.018-.215-.112-.43-.23-.645-.338-.76-.394-1.444-.735-2.062-1.053.128.278.263.566.398.862 0 .288-.163.433-.49.433-.335 0-.813-.688-1.443-2.062-1.428-.7-2.298-1.104-2.613-1.2-1.396-.41-2.152-1.6-2.275-3.562.122-1.892.187-2.853.187-2.895 0-1.02.062-1.784.188-2.272v-9.23c.12-.728.187-1.813.187-3.26-.12-.195-.187-.464-.187-.803 0-.654 1.127-1.27 3.386-1.85 1.31-.336 3.403-.87 6.274-1.607zm10.77-1.292c-.522-.15-.94-.31-1.27-.46-.403.336-3.288 1.454-8.645 3.354-2.647.926-4.745 1.634-6.31 2.124 1.112.458 2.603 1.104 4.46 1.938.123.042 1.048.37 2.772.98.935.31 1.643.535 2.123.682.25-.247.524-.37.83-.37.304 0 .523.148.68.462 1.757-.355 5.307-1.78 10.645-4.276 1.5-.7 2.777-1.256 3.848-1.66-.27-.097-.563-.196-.894-.308-2.628-.862-4.188-1.375-4.68-1.54-1.595-.37-2.78-.678-3.56-.925zm10.764 4.063c-.695.246-3.688 1.48-8.98 3.69-3.425 1.45-5.74 2.354-6.952 2.708-.02.18-.037.355-.062.556l-.062 11.076c-.04.327-.166 2.42-.37 6.272-.044.73-.103 1.354-.187 1.88.797-.358 1.887-.807 3.264-1.322 1.684-.656 3.673-1.375 5.97-2.154.328-.123 1.904-.82 4.734-2.092.77-.31 1.43-.534 1.973-.678l.187-10.953c0-1.85.123-3.754.368-5.724.204-1.645.312-2.56.312-2.77-.006-.24-.073-.406-.196-.487zm-18.092 6.368c.162.272.285.592.37.955.007.03.02.07.028.123-.07-.39-.135-.73-.188-1.02-.058-.01-.13-.032-.21-.057zm.372 3.077c-.21-.284-.416-.73-.613-1.323l-.434-1.66v-.27c-1.128-.355-2.645-.926-4.556-1.73.146.247.31.564.49.954.736 1.48 1.457 3.32 2.152 5.538.243.942.86 2.48 1.848 4.615.475 1.028.818 1.8 1.047 2.308.022-.07.042-.146.063-.216V63.68c-.56-1.146-1.52-3.606-2.896-7.39 0-1.27.64-.362 1.906 2.708.334.77.66 1.582.98 2.436v-1.906h.015zm-.306 9.57c-.92-.203-2.048-2.647-3.386-7.323-1.727-4.56-2.584-6.98-2.584-7.265v-.243l-.434-.188c-2.27-.99-3.87-1.736-4.803-2.247l-.31 7.323c.202.047.57.63 1.104 1.753.488 1.106 1.437 3.322 2.83 6.645.447.98 1.374 2.83 2.77 5.53.242.456.46.865.646 1.232l1.198.584c-.77-1.37-1.675-3.247-2.71-5.63l-5.602-12.798c.9.368 1.62 1.062 2.153 2.092.286.616.694 1.56 1.23 2.83.487 1.022 1.25 2.79 2.27 5.292.574 1.312 1.663 3.466 3.266 6.46.647 1.178 1.147 2.1 1.51 2.772.21.104.424.2.645.312v-2.462c-1.468-2.235-4.542-8.942-9.23-20.12 0-.698.313-.515.926.553.083.165.697 1.397 1.85 3.69l2.338 5.48c.492 1.148 1.562 3.308 3.2 6.46.353.696.656 1.312.925 1.853.025-.993.087-1.855.2-2.587zm-11.198-4.555c.573 1.354 1.105 2.87 1.604 4.56.312.805.76 1.866 1.354 3.193.682.354 1.486.764 2.434 1.23-.648-1.344-1.424-3.045-2.31-5.106l-3.387-8.272v3.783c.09.17.188.377.304.612zm-.46 1.046c-.022.228-.03.474-.03.738 0 2.625.354 4.163 1.05 4.615.194.143.534.347 1.018.615-.188-.495-.387-1.027-.587-1.604l-1.452-4.362z"/>
  <path fill="#545454" d="M65.982 68.47c-.207-3.117-.412-6.625-.615-10.52-.41-8.165-.616-15.427-.616-21.784 0-3.774.083-6.563.248-8.37-.247-9.64-.352-15.464-.31-17.474-.204-2.913-.327-6.79-.368-11.632-.123-3.526-.188-6.133-.188-7.813 0-1.46-.11-2.71-.34-3.753h-1.506v.185c0 1.642.163 7.158.49 16.552.37 9.396.556 15.075.556 17.046 0 3.198-.082 5.6-.247 7.197v16.062c.247 3.077.473 8.922.68 17.537.12 2.83.268 5.086.432 6.768"/>
  <path fill="#525252" d="M86.582 133.202c-.02.247-.03.514-.03.8 0 .04.04.574.123 1.602.013.037.02.078.03.123-.025-.015-.06-.02-.094-.03-.882.99-2.195 2.415-3.937 4.276-3.567 3.813-5.354 5.946-5.354 6.396 0 .817.532 3.032 1.6 6.645 1.024 3.65 1.538 5.56 1.538 5.723 0 .418-.104.717-.31.896.173.584.12.778-.152.584-.287-.194-2-1.2-5.14-3.017-3.125-1.81-5.002-3-5.63-3.566-.807 1.377-1.82 3.265-3.046 5.66-1.764 3.485-2.687 5.23-2.77 5.23-.655 0-1.023-.206-1.105-.616.035-.48.025-.838-.03-1.074-.83-.55-2.09-1.852-3.785-3.907-2.462-3.198-4.04-5.21-4.738-6.03-2.092-2.42-3.794-4.37-5.106-5.845-2.42-2.83-3.63-4.37-3.63-4.614l1.477-3.14c-1.892-2.475-4.394-5.815-7.507-10.028 0-.617 1.065-1.106 3.2-1.48 1.25-.24 3.67-.644 7.26-1.198v-.093c0-.247.35-1.293 1.047-3.14.86-2.175 1.312-3.345 1.354-3.51.082-.247.205-1.415.368-3.507.123-1.396.513-2.38 1.17-2.953.738-.656 1.948-.205 3.63 1.354.902.816 2.215 2.027 3.938 3.63l2.398 1.63c.536-.148 1.563-.24 3.077-.275 0-.042 1.045-.063 3.14-.063 3.24 3.075 6.07 5.682 8.49 7.812.245.204 1.968 1.372 5.167 3.505 1.268.877 2.27 1.617 3.018 2.22h.34v-.003zm-1.538 1.782l-11.17 1.54c-.694 0-1.946-1.987-3.752-5.97-.87-2.014-1.517-3.5-1.938-4.462-1.87 8.078-3.14 12.528-3.813 13.354-.078.393-.416.587-1.016.587-.146 0-.332-.056-.554-.153-1.593.8-4.628 2.062-9.106 3.784l-.31.185c.66.382 3.183 1.458 7.57 3.228 1.165.473 2.16.858 2.983 1.17-.037.036-.078.063-.123.093.166.673.178 1.515.03 2.522v9.29c1.294-2.224 2.73-4.552 4.308-6.98.87-1.332 1.382-2.337 1.54-3.017.462.562 1.188 1.354 2.184 2.367 2.425 2.484 4.55 4.023 6.368 4.615-.738-2.38-1.292-4.203-1.66-5.477-.616-2.22-.924-4.062-.924-5.538 0-1.024 1.414-2.994 4.246-5.907 1.435-1.478 3.097-3.076 4.982-4.8.11-.147.174-.283.186-.397l-.03-.034zm-30.798-4.796c1.806 1.354 3.918 3.117 6.34 5.29.77.69 1.693 1.507 2.768 2.464.035.28.322-.717.86-2.982.533-2.27 1.23-5.008 2.093-8.215.23-.6.494-1.133.8-1.604-1.103-.734-2.827-2.05-5.168-3.936-4.062-3.364-6.42-5.294-7.077-5.784-.286.94-1.023 3.303-2.215 7.076-.65 2.025-1.184 3.434-1.6 4.214.44.19.85.514 1.23.955.45.49 1.107 1.332 1.968 2.523zm-7.32 6.153c2.416 2.945 3.924 5.037 4.52 6.274.16-.08.336-.16.522-.244 1.56-.656 2.934-1.146 4.123-1.48.165-.04 1.19-.513 3.077-1.415.69-.312 1.296-.572 1.814-.77-.446-.354-.95-.773-1.507-1.264-1.56-1.353-2.728-2.46-3.507-3.318-3.856-3.856-5.805-5.785-5.846-5.785-4.718.656-7.59 1.147-8.614 1.478.29.455 2.096 2.626 5.42 6.526zm22.642-10.952c.04.04.533 1.088 1.477 3.14 1.807 4.06 2.87 6.09 3.2 6.09 1.31 0 4.142-.39 8.49-1.17-1.23-.917-2.708-2.104-4.43-3.564-3.323-2.83-6.42-5.66-9.292-8.49l-3.6.09c2.275 1.67 3.525 2.745 3.752 3.23.14.187.273.414.403.674zm-10.49 22.46c-.605 3.535-1.05 5.78-1.324 6.737.365.426.714.835 1.046 1.23v-.462c0-1.023.228-2.625.677-4.8.16-.937.336-1.747.523-2.432-.31-.09-.617-.182-.923-.272zm-1.786-.618c-.604 2.492-1.056 4.246-1.354 5.265l1.047 1.196c.093-.85.432-2.307 1.016-4.367l.278-1.755c-.277-.088-.555-.18-.832-.273-.048-.02-.098-.038-.154-.065zm-1.94-.673c-.473 2.156-.853 3.49-1.138 4 .348.396.686.77 1.016 1.137.07-.38.172-.84.31-1.385.327-1.147.512-1.848.553-2.094.052-.48.124-.923.216-1.32-.337-.123-.656-.234-.957-.34zm6.31 2.09c-.3-.095-.598-.188-.893-.276-.083.88-.27 2.182-.557 3.905-.368 2.34-.532 3.855-.49 4.557l-.032.027c.31.364.597.717.862 1.05-.02-.244-.03-.38-.03-.4.49-3.61.76-5.496.8-5.66l.308-2.77c0-.154.01-.297.03-.434zm.584 9.845v-6.953c-.072.48-.153 1.017-.246 1.6-.41 2.626-.615 4.083-.615 4.368 0 .45.186 1.025.553 1.725 0 .084-.03.166-.092.246.088.103.17.206.246.31-.02-.068-.03-.15-.03-.247 0-.355.06-.702.184-1.05zm-12.8-14.52c0-.13.124-.292.37-.49-.166-.196-.352-.423-.555-.68-.145.43-.34.94-.584 1.538.298.333.597.66.894.984.053-.238.135-.508.246-.805-.246-.168-.37-.355-.37-.547zm-1.353-.742c.103-.512.267-.93.493-1.262-.124-.164-.257-.34-.4-.52-.268.737-.494 1.27-.677 1.602.17.188.333.372.49.554.035-.12.064-.24.093-.374zm-1.353-1.042c.064.07.126.146.185.215.218-.553.433-1.063.646-1.538-.213.406-.49.85-.83 1.323zm7.63 4c-.233-.1-.45-.19-.647-.275-.34 1.518-.677 2.5-1.016 2.952.3.34.6.667.893.983.065-.482.3-1.334.71-2.555.024-.46.043-.83.06-1.105zM52.894 146c.062-.148.123-.283.185-.398-.142-.078-.265-.147-.37-.215-.204-.033-.398-.063-.584-.094-.285.94-.51 1.658-.677 2.15.195.226.392.438.583.646.274-.758.56-1.455.862-2.09zm-2.28-1.105c-.094.54-.196.96-.307 1.262.164.188.328.37.49.557.122-.465.338-.986.647-1.57-.312-.085-.59-.167-.83-.25z"/>
  <path fill="#545454" d="M66.6 116.515c0-3.774.082-6.563.246-8.37-.246-9.64-.352-15.464-.31-17.475-.204-2.913-.326-6.79-.368-11.632-.123-3.526-.188-6.133-.188-7.813 0-1.46-.11-2.71-.338-3.753h-1.508v.185c0 1.643.163 7.16.49 16.553.37 9.396.557 15.075.557 17.046 0 3.198-.08 5.6-.247 7.197v16.062M137.877 55.544c-3.178-.7-5.327-1.254-6.45-1.663-.15.86-.438 2.383-.863 4.566-.29 1.542-.565 2.673-.82 3.39.007-.024.03-.046.066-.065-.088.266-.133.578-.133.933l-.044.132c.532.266 1.227.768 2.084 1.507 1.123.946 2.704 2.32 4.743 4.122 4.963 3.28 7.786 5.393 8.465 6.34.443.265.93.575 1.463.93 1.063.797 2.112 1.625 3.146 2.48.356-.323 1.108-.75 2.26-1.283.828-.354 1.833-.797 3.016-1.33.354-.147 1.27-.753 2.748-1.816.295-.237.605-.4.93-.488 0-.03-.294-.577-.885-1.64-.59-1.124-3.104-5.467-7.535-13.032-1.36-.563-5.425-1.59-12.19-3.08zm12.5 1.66c.756 1.306 1.997 3.388 3.723 6.25 3.335 5.528 5.183 8.645 5.54 9.354.324-.118.428.28.31 1.196-.088.77-.103 1.478-.044 2.127.06.18.133.903.222 2.173.03.916.104 1.67.222 2.26.148.68.325 2.247.532 4.7.104 1.3.187 2.304.243 3.013-.014.324-.022.678-.022 1.063v.62c-5.175 8.516-8.507 13.953-9.995 16.312-.155.234-.287.44-.4.62-1.762.635-4.222 1.632-7.38 2.992l-8.42 3.213c-1.142-.11-3.062-.392-5.762-.842-.357-.12-4.53-1.116-12.522-2.992-.723-.17-1.38-.324-1.972-.466-1.236-1.857-3.91-6.394-8.023-13.607h-.046c-.354-.03-.783-1.182-1.285-3.458-.238-1.183-.43-2.187-.578-3.014-.118-.06-.178-.192-.178-.4 0-.058.015-.132.045-.22-.15-.74-.282-1.302-.4-1.685-1.21-5.32-1.788-8.23-1.728-8.733l.044-.088c-.207-.118-.414-.252-.62-.4.088-.826 1.742-3.205 4.963-7.134 1.122-1.39 2.068-2.527 2.836-3.413 1.152-1.655 2.32-3.177 3.5-4.565.444-.56.873-1.065 1.287-1.507v-.09c.236-.324.532-.62.886-.886.768-.856 1.3-1.226 1.594-1.107.592-.354 1.3-.65 2.128-.886.207-.06 2.172-1.006 5.895-2.837 1.39-.62 2.498-1.078 3.324-1.374.03-.383.046-.59.046-.62v-.045c.06-.708.207-1.21.443-1.507l.642.046c0-.21-.024-.375-.066-.488V35.665c-.088-2.51-.34-6.043-.752-10.593-.444-5.142-.725-8.66-.843-10.55V-4.894c0-.177.03-.265.09-.265.03.03.058.06.088.088v-10.86l-.177-.84v-7.492c.02-.066.033-.14.046-.222h1.286c-.02.17-.035.317-.044.443v7.002l.177.84v11.26c-.03-.06-.06-.104-.09-.133-.058-.06-.087 0-.087.176V14.3c.088 1.418.383 4.875.886 10.373.384 4.343.62 7.845.708 10.504v15.38c.09.297.165.57.22.82l.224.02c.323.275.493.622.51 1.043l.022.02h-.022l-.022.224v.043c1.493.252 3.274.63 5.342 1.13 2.064.498 4.878 1.125 8.443 1.884 2.712.584 4.38 1.07 5.006 1.465zm5.32 19.283c0-.09.013-.164.042-.223-.267.148-.562.325-.887.532-.532.296-1.02.562-1.462.8.268.117.68.516 1.244 1.195.56.562 1.33 1.42 2.304 2.57.118.148.768.844 1.95 2.085.206.296.414.547.62.754-.118-1.184-.236-2.557-.354-4.124-.383-.206-1.035-.826-1.95-1.862-1.006-1.18-1.508-1.757-1.508-1.727zm3.367 2.438c-.09-1.39-.177-2.88-.266-4.477-.532.385-1.448.945-2.747 1.684.326 0 .917.458 1.774 1.375.413.443.826.915 1.24 1.418zm-14.98-3.28c-1.685-.768-6.605-4.713-14.76-11.835-.826.74-1.906 1.656-3.235 2.75-3.9 3.1-6.25 4.978-7.05 5.628-.56.442-2.82 2.467-6.78 6.072-1.212 1.063-2.202 1.936-2.97 2.614-.12.06-.223.148-.312.268-.177.118-.295.25-.354.397.236.738.606 2.024 1.108 3.856.118.826.385 1.847.797 3.06.206.648.546 1.668 1.02 3.058.294 1.122 1.152 3.5 2.57 7.135.177-.148.25-.03.222.353l-.09.09c.326.768.592 1.446.8 2.037.147.148.206.312.177.488v.045c.206.53.368.96.486 1.285.06 0 .104.016.133.045l5.273.753 5.94.31c6.858-.2 11.18-.312 12.964-.332l.022-.02c.146-.09.81-1.893 1.994-5.41 1.123-3.457 1.92-5.937 2.394-7.446.473-1.507.812-2.63 1.02-3.368.53-1.27 1.02-2.334 1.46-3.19.592-1.39 1.02-2.44 1.287-3.147l.71-1.64c.058-.09.102-.163.13-.222-.914-.413-2.2-1.3-3.855-2.66-.383-.385-.753-.71-1.107-.975zm6.204 3.812c-.176.474-.56 1.418-1.152 2.836.118-.06.31.104.577.488.295.414.693 1.02 1.196 1.817l6.914 8.6c.06-.147.104-.28.133-.4.442-.885.87-1.654 1.285-2.304-.325-.324-.93-1.02-1.816-2.083-1.448-1.715-2.38-2.807-2.792-3.28-.472-.562-1.27-1.536-2.393-2.926-1.24-1.537-1.86-2.38-1.86-2.527.03-.502.65-.03 1.86 1.418.65.798 1.596 1.98 2.837 3.547.325.384 1.27 1.432 2.837 3.146.856.976 1.448 1.67 1.773 2.083.148-.206.31-.396.488-.575-.177-.71-.354-1.98-.53-3.812-1.687-1.92-2.75-3.104-3.193-3.546-.59-.59-1.153-1.197-1.684-1.817-1.124-1.24-1.685-2.01-1.685-2.305-1.124.62-1.98 1.05-2.57 1.286-.003.18-.077.297-.225.357zm-2.127 4.92c-.117.207-.222.457-.31.752.15.177.354.428.62.753.533.71 1.597 2.157 3.192 4.344.414.68 1.33 1.892 2.747 3.635.975 1.183 1.565 1.905 1.77 2.172.475-.797.903-1.537 1.287-2.216-.325-.236-.976-.96-1.95-2.173-1.33-1.772-2.232-2.91-2.704-3.412-2.66-3.044-3.96-4.876-3.9-5.496v-.044c-.205.472-.457 1.033-.752 1.683zm2.97 6.338c-1.802-2.453-2.97-4.108-3.502-4.965-.827 1.862-1.506 3.635-2.04 5.32.533.442 1.567 1.964 3.104 4.563.325.444 1.094 1.448 2.306 3.015 1.034 1.42 1.55 2.202 1.55 2.35-.03.295-.147.43-.354.398-.295 0-1.61-1.728-3.945-5.185-1.508-2.187-2.483-3.664-2.926-4.432-.266.886-.502 1.743-.71 2.57v.09c.147-.12.606.323 1.374 1.328.738 1.006 1.448 2.07 2.128 3.192.383.62 1.107 1.655 2.17 3.103.503.77.874 1.3 1.11 1.597.147-.266.34-.575.575-.932.858-1.388 1.583-2.57 2.173-3.545-.65-.62-1.965-2.334-3.945-5.142-2.394-3.605-3.59-5.393-3.59-5.363.03-.502.562-.09 1.596 1.242.53.768 1.36 1.98 2.48 3.634.326.444 1.183 1.538 2.572 3.28.59.71 1.034 1.272 1.33 1.686.206-.384.414-.71.62-.976.207-.324.43-.636.666-.93h-.09c-.235-.03-.93-.814-2.082-2.35-1.3-1.772-2.156-2.954-2.57-3.545zm-6.604 7.8c.443.503 1.21 1.522 2.305 3.06 1.833 2.45 2.897 3.93 3.192 4.432.236-.413.56-.96.975-1.64-.354-.207-.9-.857-1.64-1.95-.088-.207-.68-1.196-1.773-2.97-1.95-2.777-2.968-4.358-3.057-4.743-.266 1.063-.547 2.084-.843 3.06.148-.002.428.25.842.752zm-1.596 2.26c.236.237.636.917 1.197 2.04.177.414.577 1.02 1.197 1.817.088.147.177.413.265.797.135-.067.43.088.885.465.455.376 1.18.636 2.172.775-.03-.857-.206-1.508-.53-1.95-.918-1.33-1.464-2.127-1.64-2.394-1.774-2.01-2.764-3.324-2.97-3.945-.237.74-.474 1.464-.71 2.174.03.06.074.133.133.222zm-3.036 3.06l.022-.023-.443.045c.146-.01.287-.02.42-.023zm3.79-.4c-.56-.944-.96-1.64-1.196-2.083-.118.296-.222.59-.31.887-.296.885-.562 1.535-.798 1.948.768.09 1.86.606 3.28 1.552-.356-1.033-.68-1.803-.976-2.304zm-27.26-43.304l-6.736 8.2c-2.896 3.428-5.083 6.398-6.56 8.91.473.177.916.37 1.33.577.147.088.28.163.4.222.885.44 1.83.99 2.835 1.638h.133c.118.088.222.193.31.31.06.03.134.045.223.045.974-.856 2.54-2.275 4.697-4.255 2.216-2.01 4.182-3.665 5.896-4.964.473-.325 2.644-2.144 6.515-5.452 1.006-.827 1.862-1.536 2.57-2.127.03-.354.046-.547.046-.577.088-.384.294-1.315.62-2.792.325-1.36.502-2.216.532-2.57.384-1.626.62-2.527.71-2.704.057-.208.13-.383.22-.532-.148.03-.31.03-.488 0-.147 0-.294-.015-.443-.044-.857.502-2.202 1.183-4.033 2.04-2.72 1.3-4.743 2.2-6.073 2.703-1.066.44-1.967.9-2.705 1.37zm13.032-7.224h.354c.147.03.252.045.31.045l.045-.088.045-.133c-.07-.023-.16-.112-.266-.267h-.355l-.134.223v.22zm-25.885 25.62v.043c.03-.03.09-.074.178-.133-.118-.06-.192-.12-.222-.178-.03.06-.014.148.045.266zm.8.31l-.533.533c.088.294.162.574.222.84l.442-.708c.088-.148.162-.28.222-.4l-.355-.266zm.974 4.566c.473-.827.768-1.256.886-1.285.148-.53.37-1.034.665-1.507v-.045c-.177-.118-.325-.222-.443-.31-.237.294-.606.782-1.108 1.46-.267.652-.473 1.14-.62 1.465.03.354.088.725.177 1.107.09-.265.237-.56.444-.885zm.09-3.06c.176-.177.31-.34.398-.488-.177-.177-.37-.31-.576-.398-.384.708-.695 1.27-.93 1.685.06.267.117.517.177.753.205-.473.515-.99.93-1.55zm2.26.8c-.06-.03-.105-.06-.134-.09-.266.443-.65 1.107-1.153 1.995-.09.176-.37.68-.84 1.507-.208.385-.37.665-.49.843.06.324.134.68.223 1.063 0-.09.03-.178.09-.267.413-.915.707-1.49.886-1.727.53-1.095 1.005-1.95 1.418-2.572v-.753zm.22 1.772l-2.393 4.565c.03.295.09.604.18.93.03.207.073.4.132.576.09-.236.178-.472.266-.708.296-.68.59-1.24.886-1.684l1.108-2.75c-.118-.354-.177-.664-.177-.93zm2.57 12.81c-.62 1.39-.93 2.17-.93 2.348-.03.03.06.148.266.356 0 .028-.015.073-.044.132.118.207.25.43.398.666.06-.207.178-.473.354-.798.414-.8.635-1.256.665-1.374.355-.738.503-1.227.443-1.463-.177-.472-.354-.96-.532-1.46-.146.44-.353.973-.62 1.594zm.223-2.838c-.03-.148-.044-.25-.044-.31-.118-.326-.237-.62-.355-.887-.147.383-.354.87-.62 1.46-.738 1.538-1.123 2.38-1.153 2.527 0 .147.03.384.09.71 0 .06-.03.117-.09.177.148.266.325.547.533.842.06-.266.163-.547.31-.842.326-.828.547-1.36.666-1.596.354-.77.547-1.345.576-1.73-.002-.145.027-.263.087-.352zm-3.457-5.407c-.207.442-.592 1.388-1.153 2.837.06.354.133.68.222.975.295-.797.782-1.846 1.462-3.146.414-.74.738-1.284.975-1.64-.148-.473-.28-.915-.398-1.33-.268.59-.638 1.358-1.11 2.303zm.842 1.728c-.77 1.3-1.21 2.556-1.33 3.767 0 .06.015.118.044.178.06.178.118.34.177.487.208-.708.695-1.89 1.463-3.546.325-.768.605-1.33.842-1.684-.118-.326-.208-.606-.266-.843-.206.415-.517.96-.93 1.64zm1.684 1.773c.09-.176.148-.34.177-.487-.147-.384-.266-.754-.354-1.107-.208.502-.518 1.195-.932 2.083-.768 1.684-1.152 2.6-1.152 2.748-.03.146.015.368.133.664-.03.118-.075.19-.134.222.118.178.222.354.31.53.12-.68.562-1.697 1.33-3.057l.62-1.596zm2.305 5.85c-.146.298-.31.65-.487 1.065-.236.473-.472.96-.708 1.463l.222.4c0 .117-.06.25-.177.397-.03.06-.074.09-.133.09.177.235.34.487.487.753.06-.236.148-.518.267-.843.296-.71.474-1.152.533-1.33.148-.354.266-.664.355-.93-.12-.325-.24-.68-.357-1.064zm1.242 3.325c-.207-.413-.37-.826-.488-1.24-.088.147-.133.25-.133.31-.028.147-.265.784-.707 1.906 0 .03.073.18.222.444 0 .09-.074.207-.222.354-.03.03-.06.074-.09.134.09.147.193.325.31.53.09-.176.178-.34.267-.486.296-.592.488-1.035.576-1.33.09-.207.177-.414.266-.62zm.975 2.483c-.207-.502-.444-1.05-.71-1.64-.5 1.36-.752 2.054-.752 2.084-.03.088.045.235.222.443 0 .06-.03.132-.09.22.18.297.37.65.577 1.065v-.044c.03-.354.133-.725.31-1.11.177-.413.325-.752.443-1.018zm-.31 2.66h-.133c.118.177.222.353.31.53 0 .03.015.06.045.09.117-.473.31-.916.575-1.33.148-.178.25-.312.31-.4v-.045c-.087-.146-.22-.383-.398-.708-.266.65-.414 1.034-.443 1.152 0 .118.074.236.222.354-.032.27-.194.388-.49.357zm.887.885c-.03.09-.06.34-.09.753.03.09.075.164.134.223.03-.207.03-.4 0-.577l.044-.576c-.03.03-.06.088-.088.176zM135.27 154.01c-2.232-2.605-4.857-4.894-7.227-7.39.03-.442-.417-.812-.864-.622-.286.012-.565.21-.6.484-1.362 1.244-2.54 2.697-3.936 3.944-1.156 1.03-2.077 2.115-2.615 3.574-.93 2.513 2.405 5.944 3.774 7.713.147.188.354.197.53.115.03.02.06.035.093.05.028.018.055.034.084.048.05.02.102.03.15.048.074.026.148.05.228.07.02.003.034.007.052.014.13.032.26.06.396.075h.007c.082.013.164.02.248.025.793.08 1.64.016 2.386.062.92.057 2.764.53 3.6.04 2.166-1.27 2.743-5.306 3.822-7.27.187-.336.117-.695-.128-.98zm-4.8 6.8c-1.633-.063-4.44-.997-5.945-.07l-.017-.01c-.938-2.37-3.953-4.728-2.523-7.282.64-1.14 1.93-2.047 2.896-2.896.942-.826 1.593-1.742 2.318-2.682 1.598 2.672 4.428 4.607 6.546 6.88-.744 1.918-1.737 6.113-3.275 6.06zM381.01 33.142c-2.23-2.605-4.855-4.894-7.226-7.39.028-.442-.417-.81-.864-.622-.285.012-.563.21-.598.484-1.363 1.244-2.542 2.698-3.938 3.945-1.156 1.03-2.077 2.114-2.615 3.573-.93 2.513 2.405 5.944 3.774 7.713.147.188.354.197.53.115.03.02.06.036.093.052.028.016.055.033.084.047.05.02.102.028.15.046.073.027.147.05.228.07.02.004.034.008.052.014.13.033.262.06.396.076h.007c.082.012.164.02.248.025.793.08 1.64.017 2.386.063.92.057 2.764.53 3.602.04 2.165-1.27 2.74-5.306 3.82-7.27.188-.335.118-.696-.127-.98zm-4.8 6.798c-1.632-.062-4.438-.996-5.944-.07l-.017-.007c-.94-2.37-3.954-4.73-2.524-7.284.64-1.142 1.93-2.048 2.896-2.897.94-.827 1.592-1.743 2.317-2.682 1.597 2.673 4.427 4.61 6.545 6.88-.745 1.92-1.737 6.116-3.275 6.06zM29.576 161.35c-.137-.434-.568-.695-1.018-.578-2.99.78-5.95 1.595-9.05 1.78-.4.024-.8.332-.772.772.15 2.46.98 4.77 1.452 7.162-.117.877-.023 1.688.195 2.6.1.404.48.65.878.67 3.27.148 6.333-1.238 9.49-1.876.364-.073.584-.44.6-.788.158-3.356-.768-6.574-1.774-9.742zm.15 9.07c-2.596.525-5.16 1.46-7.815 1.506-.103-.312-.213-.62-.314-.934-.12-2.354-1.043-4.57-1.26-6.92 2.67-.104 5.334-.775 7.907-1.494.835 2.55 1.51 5.15 1.482 7.84zM203.2 116.912c-4.75-3.456-9.87 6.052-5.198 7.99.48.88 1.62 1.353 2.602 1.402 1.28.065 2.543-.913 3.242-1.896 1.654-2.325 1.827-5.7-.645-7.496zm-.452 6.265c-.45.68-1.14 1.242-1.934 1.44-.98.248-1.633-.666-2.502-.872-.064-.017-.133-.015-.2 0-2.134-1.9 1.013-7.773 4.396-5.65 1.812 1.142 1.212 3.624.24 5.082zM258.327 109.94c-.36-1.61-.486-3.272-.78-4.896-.212-1.16-.462-2.895-1.48-3.675-1.997-1.536-6.21 2.016-8.055 2.667-.264.093-.537.345-.502.656.254 2.164.426 4.72 1.492 6.705-.05.46-.03.896.266 1.31.21.297.426.304.764.252.094-.015.197-.043.3-.07.772.327 1.792-.17 2.542-.396 1.645-.498 3.324-.962 4.92-1.613.4-.164.632-.496.533-.94zm-5.446.925c-.737.22-2.005.365-2.626.966-.793-2.195-1.182-4.365-1.346-6.68.826-.33 1.623-.76 2.418-1.15.584-.286 3.252-1.928 3.846-1.466.842.654.936 2.927 1.09 3.88.174 1.076.275 2.165.46 3.237-1.26.463-2.56.83-3.84 1.215zM392.064 82.42c-.36-1.61-.486-3.273-.78-4.897-.212-1.16-.462-2.895-1.48-3.675-1.997-1.535-6.212 2.017-8.056 2.668-.264.093-.537.345-.502.656.254 2.164.426 4.72 1.492 6.705-.05.46-.03.896.266 1.31.21.297.426.304.764.252.095-.016.197-.044.302-.07.77.326 1.79-.17 2.54-.397 1.646-.498 3.324-.962 4.92-1.613.402-.165.634-.497.534-.94zm-5.445.924c-.74.22-2.007.365-2.628.966-.793-2.196-1.183-4.366-1.347-6.682.826-.33 1.623-.758 2.42-1.15.583-.285 3.25-1.927 3.845-1.465.842.654.936 2.927 1.09 3.88.174 1.076.275 2.165.46 3.237-1.26.462-2.56.83-3.84 1.214zM328.482 15.36c-.064-1.985-.27-4.113-.688-6.055-.016-.067-.05-.12-.096-.163-.037-.076-.092-.144-.193-.18-1.477-.524-2.625-1.317-4.012-2.002-1.34-.663-2.787-1.172-4.188-1.72.144-.81.02-1.668-.006-2.485-.032-.916-.034-1.83-.062-2.743-.146-.005-.29-.006-.433-.012-.186.002-.368.007-.553.012-.076.913-.146 1.825-.178 2.744-.023.756-.05 1.57.182 2.29-1.613.5-2.96 1.55-4.305 2.542-1.114.824-2.89 1.6-3.753 2.68-.054.067-.074.14-.082.215-.076.056-.146.135-.185.25-.448 1.307-.053 3.166.06 4.506.14 1.73.27 3.467.438 5.195.013.13.062.23.127.315-.04.09-.06.196-.032.317.65 3.054 5.434 5.245 8.092 6.052 3.707 1.125 7.817-3.69 9.772-6.207.062-.078.088-.16.103-.244.055-.064.102-.14.123-.235.377-1.595-.078-3.452-.13-5.075zm-9.23-8.816c.955 1.078 1.852 2.207 2.816 3.275.53.585 1.188 1.325 1.928 1.857-.963.335-1.916.683-2.902.946-.178.047-.696.115-1.092.27-.02-1.133-.473-2.42-.615-3.51-.14-1.052-.26-2.104-.563-3.12.14.098.28.197.428.28zm-8.113 4.573c.034.007.07.017.104.026.002 0 .004-.003.006-.004.375-.274.773-.493 1.193-.674-.088-.01-.18-.03-.267-.04.662-.39 1.287-.92 1.73-1.235 1.37-.975 2.75-2.12 4.27-2.895.103 1.376.214 2.75.31 4.127.056.747.107 1.59.38 2.312-1.187-.372-2.53-.328-3.748-.556-1.357-.254-2.664-.71-4-1.038.007-.007.015-.015.02-.023zm.592 9.98c-.095-.12-.185-.24-.265-.358.056-.083.097-.18.104-.306.165-2.686-.305-5.564-.573-8.307-.02-.042-.025-.092-.04-.138 1.206.62 2.546.966 3.862 1.262 1.11.25 2.505.583 3.697.4-.21 3.01-.276 6.497.354 9.506-2.32-.815-4.768-1.408-7.138-2.06zm7.42 3.844c-.047.27-.103.55-.134.83-.01-.002-.018 0-.028-.002-1.756-.29-4.06-1.628-5.765-3.123 1.93.734 4.056 1.11 5.996 1.684.016.013.024.03.04.043-.04.19-.074.383-.108.568zm.985.81c.03-.234.062-.468.103-.7.045-.246.086-.5.104-.756 1.607-.02 3.193-.64 4.71-1.34-1.5 1.343-3.27 2.547-4.917 2.796zm.035-2.438c-.287-3.187.05-6.724-.846-9.77.03.037.057.074.088.108.094.094.197.103.293.078.08.063.176.107.27.11 1.61.042 3.512-.708 4.958-1.36.017-.006.02-.018.035-.025.03 1.585.103 3.17.168 4.755.06 1.394-.12 3.016.27 4.376-1.683.76-3.388 1.49-5.236 1.728zm4.883-11.996c-.737-.736-1.678-1.373-2.377-2.105-.586-.614-1.147-1.25-1.715-1.88.928.363 1.87.705 2.71 1.256.768.507 1.768 1.262 2.733 1.326.022.02.05.03.07.05-.02.01-.04.01-.06.025-.51.342-.982.834-1.36 1.33zm2.004 9.62c-.093-.01-.19-.006-.29.04l-.272.12c.14-1.046-.062-2.174-.154-3.205-.164-1.824-.358-3.645-.49-5.474-.01-.128-.063-.225-.14-.295v-.004c.145.013.298-.045.395-.222.193-.36.466-.82.806-1.058.006-.005.008-.01.014-.016-.026 1.51.19 3.044.265 4.54.062 1.323.018 2.627.176 3.946.054.432-.085.787.105 1.163-.135.147-.274.304-.416.465zM189.18 156.13c-1.89-3.075-4.48-5.526-7.145-7.925-.347-.312-1.025-.332-1.248.16-1.477 3.275-1.712 7.53-1.085 11.11-.045.14-.058.29-.025.466.02.105.083.19.162.26.1.272.478.32.674.137.942-.092 2.194-.69 3.156-1.032 1.753-.625 3.576-1.2 5.222-2.078.38-.206.51-.736.288-1.096zm-7.282 2.102c-.274.1-.664.2-1.04.336.294-2.826.024-5.715.934-8.442 2.034 1.86 3.982 3.79 5.527 6.08-1.742.815-3.623 1.386-5.422 2.026zM337.61 74.3c-1.892-3.076-4.48-5.527-7.146-7.926-.347-.312-1.023-.332-1.248.16-1.478 3.275-1.712 7.53-1.085 11.11-.044.14-.058.29-.023.466.02.105.084.188.16.258.103.273.48.322.678.138.94-.092 2.192-.69 3.155-1.032 1.753-.625 3.575-1.2 5.223-2.078.38-.205.51-.735.287-1.096zm-7.282 2.103c-.273.1-.664.198-1.04.336.294-2.828.024-5.717.935-8.444 2.033 1.86 3.98 3.79 5.526 6.08-1.742.815-3.623 1.385-5.422 2.027zM116.704 200.025c-.36-1.61-.486-3.272-.78-4.896-.212-1.16-.462-2.896-1.478-3.676-1.998-1.535-6.212 2.017-8.056 2.668-.264.093-.537.345-.502.655.254 2.164.426 4.72 1.492 6.705-.05.46-.03.896.266 1.312.21.296.426.304.764.25.094-.015.197-.042.3-.067.772.326 1.792-.172 2.542-.396 1.644-.497 3.324-.96 4.92-1.61.4-.17.63-.5.532-.945zm-5.445.925c-.74.22-2.007.364-2.628.966-.793-2.195-1.182-4.365-1.346-6.682.826-.33 1.623-.758 2.418-1.15.584-.285 3.25-1.927 3.845-1.465.84.653.935 2.926 1.09 3.88.173 1.075.274 2.164.46 3.236-1.26.462-2.56.828-3.84 1.214z"/>
  <path fill="#545454" stroke="#545454" stroke-width="2" stroke-miterlimit="10" d="M279 44.5c0-17.668.648-35.22-2-52"/>
</svg>
